<svg width="44" height="44" viewBox="0 0 44 44" fill="none" xmlns="http://www.w3.org/2000/svg">
<path d="M18.8955 24.2057V30.2536C18.8955 31.9187 20.0697 33 21.8507 33H33.0448C34.8259 33 36 31.9187 36 30.2536V13.7464C36 12.0909 34.8259 11 33.0448 11H21.8507C20.0697 11 18.8955 12.0909 18.8955 13.7464V19.8038H20.8458V14.0526C20.8458 13.3062 21.3035 12.8756 22.1194 12.8756H32.7761C33.592 12.8756 34.0498 13.3062 34.0498 14.0526V29.9474C34.0498 30.6938 33.592 31.1244 32.7761 31.1244H22.1194C21.3035 31.1244 20.8458 30.6938 20.8458 29.9474V24.2057H18.8955ZM16.8358 22.799H23.3831L25.3035 22.7033L23.3333 24.3684L22.796 24.9043C22.6468 25.0574 22.5473 25.2679 22.5473 25.4976C22.5473 25.9474 22.8856 26.2632 23.3433 26.2632C23.5721 26.2632 23.7811 26.177 23.9403 26.0239L27.4627 22.6555C27.6716 22.445 27.791 22.2153 27.791 21.9952C27.791 21.7751 27.6716 21.5359 27.4627 21.3349L23.9403 17.9665C23.7811 17.8134 23.5721 17.7273 23.3433 17.7273C22.8856 17.7273 22.5473 18.0431 22.5473 18.4928C22.5473 18.7225 22.6468 18.933 22.796 19.0861L23.3333 19.622L25.3035 21.2871L23.3831 21.1914H16.8358C16.3284 21.1914 16 21.5646 16 21.9952C16 22.4258 16.3284 22.799 16.8358 22.799Z" fill="#F56B6C"/>
</svg>
